# xmcd
#
# Track frame offsets: 
#        150
#        14665
#        27607
#        41266
#        57046
#        67924
#        80615
#        93968
#
# Disc length: 1411 seconds
#
# Revision: 0
# Processed by: cddbd v1.5.2PL0 Copyright (c) Steve Scherf et al.
# Submitted via: ExactAudioCopy v0.99pb5
#
DISCID=5d058108
DTITLE=Gary Simonds - A Collection of Songs
DYEAR=2004
DGENRE=Gospel
TTITLE0=Jesus Is Calling
TTITLE1=The Cross Means Everything To Me
TTITLE2=Hands Of Deliverance
TTITLE3=Holy Fire
TTITLE4=Here I Am, Dear Lord
TTITLE5=Let Go Of The World
TTITLE6=Where Peaceful Waters Flow
TTITLE7=Jesus Will Help You
EXTD=
EXTT0=
EXTT1=
EXTT2=
EXTT3=
EXTT4=
EXTT5=
EXTT6=
EXTT7=
PLAYORDER=
